<svg width="44" height="38" viewBox="0 0 44 38" fill="none" xmlns="http://www.w3.org/2000/svg">
<path d="M42 22H40" stroke="white" stroke-width="1.6" stroke-miterlimit="10" stroke-linecap="square"/>
<path d="M37 22H36" stroke="white" stroke-width="1.6" stroke-miterlimit="10" stroke-linecap="square"/>
<path d="M42 26H40" stroke="white" stroke-width="1.6" stroke-miterlimit="10" stroke-linecap="square"/>
<path d="M37 26H36" stroke="white" stroke-width="1.6" stroke-miterlimit="10" stroke-linecap="square"/>
<path d="M42 30H40" stroke="white" stroke-width="1.6" stroke-miterlimit="10" stroke-linecap="square"/>
<path d="M37 30H36" stroke="white" stroke-width="1.6" stroke-miterlimit="10" stroke-linecap="square"/>
<path d="M18 30H11" stroke="white" stroke-width="1.6" stroke-miterlimit="10" stroke-linecap="square"/>
<path d="M18 26H11" stroke="white" stroke-width="1.6" stroke-miterlimit="10" stroke-linecap="square"/>
<path d="M18 22H11" stroke="white" stroke-width="1.6" stroke-miterlimit="10" stroke-linecap="square"/>
<path d="M18 18H11" stroke="white" stroke-width="1.6" stroke-miterlimit="10" stroke-linecap="square"/>
<path d="M31 30H24" stroke="white" stroke-width="1.6" stroke-miterlimit="10" stroke-linecap="square"/>
<path d="M31 26H24" stroke="white" stroke-width="1.6" stroke-miterlimit="10" stroke-linecap="square"/>
<path d="M31 22H24" stroke="white" stroke-width="1.6" stroke-miterlimit="10" stroke-linecap="square"/>
<path d="M31 18H24" stroke="white" stroke-width="1.6" stroke-miterlimit="10" stroke-linecap="square"/>
<path d="M31 14H24" stroke="white" stroke-width="1.6" stroke-miterlimit="10" stroke-linecap="square"/>
<path d="M31 10H24" stroke="white" stroke-width="1.6" stroke-miterlimit="10" stroke-linecap="square"/>
<path d="M31 6H24" stroke="white" stroke-width="1.6" stroke-miterlimit="10" stroke-linecap="square"/>
<path d="M43 37H1" stroke="white" stroke-width="1.6" stroke-miterlimit="10" stroke-linecap="square"/>
<path d="M1 37V17.8L5.2 13.4" stroke="white" stroke-width="1.6" stroke-miterlimit="10" stroke-linecap="square"/>
<path fill-rule="evenodd" clip-rule="evenodd" d="M32 13L43 19V37H32V13Z" stroke="white" stroke-width="1.6" stroke-miterlimit="10" stroke-linecap="square"/>
<path d="M13.5 12.99V5.98999L18 1.48999" stroke="white" stroke-width="1.6" stroke-miterlimit="10" stroke-linecap="square"/>
<path fill-rule="evenodd" clip-rule="evenodd" d="M19 1H32V37H19V1Z" stroke="white" stroke-width="1.6" stroke-miterlimit="10" stroke-linecap="square"/>
<path fill-rule="evenodd" clip-rule="evenodd" d="M6 13H19V37H6V13Z" stroke="white" stroke-width="1.6" stroke-miterlimit="10" stroke-linecap="square"/>
</svg>
