<svg width="196" height="196" viewBox="0 0 196 196" fill="none" xmlns="http://www.w3.org/2000/svg">
<circle cx="98" cy="98" r="88" fill="#F73A43"/>
<circle cx="98" cy="98" r="97.5" stroke="#F1A8AC"/>
<path d="M118 75H116" stroke="white" stroke-width="1.6" stroke-miterlimit="10" stroke-linecap="square"/>
<path d="M113 75H112" stroke="white" stroke-width="1.6" stroke-miterlimit="10" stroke-linecap="square"/>
<path d="M118 79H116" stroke="white" stroke-width="1.6" stroke-miterlimit="10" stroke-linecap="square"/>
<path d="M113 79H112" stroke="white" stroke-width="1.6" stroke-miterlimit="10" stroke-linecap="square"/>
<path d="M118 83H116" stroke="white" stroke-width="1.6" stroke-miterlimit="10" stroke-linecap="square"/>
<path d="M113 83H112" stroke="white" stroke-width="1.6" stroke-miterlimit="10" stroke-linecap="square"/>
<path d="M94 83H87" stroke="white" stroke-width="1.6" stroke-miterlimit="10" stroke-linecap="square"/>
<path d="M94 79H87" stroke="white" stroke-width="1.6" stroke-miterlimit="10" stroke-linecap="square"/>
<path d="M94 75H87" stroke="white" stroke-width="1.6" stroke-miterlimit="10" stroke-linecap="square"/>
<path d="M94 71H87" stroke="white" stroke-width="1.6" stroke-miterlimit="10" stroke-linecap="square"/>
<path d="M107 83H100" stroke="white" stroke-width="1.6" stroke-miterlimit="10" stroke-linecap="square"/>
<path d="M107 79H100" stroke="white" stroke-width="1.6" stroke-miterlimit="10" stroke-linecap="square"/>
<path d="M107 75H100" stroke="white" stroke-width="1.6" stroke-miterlimit="10" stroke-linecap="square"/>
<path d="M107 71H100" stroke="white" stroke-width="1.6" stroke-miterlimit="10" stroke-linecap="square"/>
<path d="M107 67H100" stroke="white" stroke-width="1.6" stroke-miterlimit="10" stroke-linecap="square"/>
<path d="M107 63H100" stroke="white" stroke-width="1.6" stroke-miterlimit="10" stroke-linecap="square"/>
<path d="M107 59H100" stroke="white" stroke-width="1.6" stroke-miterlimit="10" stroke-linecap="square"/>
<path d="M119 90H77" stroke="white" stroke-width="1.6" stroke-miterlimit="10" stroke-linecap="square"/>
<path d="M77 90.0004V70.8004L81.2 66.4004" stroke="white" stroke-width="1.6" stroke-miterlimit="10" stroke-linecap="square"/>
<path fill-rule="evenodd" clip-rule="evenodd" d="M108 66L119 72V90H108V66Z" stroke="white" stroke-width="1.6" stroke-miterlimit="10" stroke-linecap="square"/>
<path d="M89.5 65.9902V58.9902L94 54.4902" stroke="white" stroke-width="1.6" stroke-miterlimit="10" stroke-linecap="square"/>
<path fill-rule="evenodd" clip-rule="evenodd" d="M95 54H108V90H95V54Z" stroke="white" stroke-width="1.6" stroke-miterlimit="10" stroke-linecap="square"/>
<path fill-rule="evenodd" clip-rule="evenodd" d="M82 66H95V90H82V66Z" stroke="white" stroke-width="1.6" stroke-miterlimit="10" stroke-linecap="square"/>
<path d="M72.5381 115H68.6406V105.897H72.3413C73.0776 105.897 73.7061 106.141 74.2266 106.627C74.7471 107.114 75.0073 107.673 75.0073 108.303C75.0073 108.667 74.9312 109.001 74.7788 109.306C74.6307 109.611 74.4826 109.822 74.3345 109.941L74.0996 110.125C74.1335 110.142 74.18 110.172 74.2393 110.214C74.3027 110.252 74.4149 110.339 74.5757 110.474C74.7365 110.605 74.874 110.751 74.9883 110.912C75.1068 111.073 75.2147 111.282 75.312 111.541C75.4136 111.794 75.4644 112.059 75.4644 112.334C75.4644 113.062 75.1851 113.688 74.6265 114.213C74.0679 114.738 73.3717 115 72.5381 115ZM70.0688 113.762H72.5381C72.9613 113.762 73.3167 113.62 73.6045 113.337C73.8923 113.049 74.0361 112.694 74.0361 112.271C74.0361 111.847 73.8923 111.492 73.6045 111.204C73.321 110.916 72.9655 110.772 72.5381 110.772H70.0688V113.762ZM72.3413 107.135H70.0688V109.604H72.3413C72.6968 109.604 72.9909 109.488 73.2236 109.255C73.4606 109.018 73.5791 108.724 73.5791 108.373C73.5791 108.018 73.4606 107.723 73.2236 107.491C72.9909 107.254 72.6968 107.135 72.3413 107.135ZM86.7061 105.897V115H85.2715V105.897H86.7061ZM81.0503 115H77.54V105.897H78.9683V109.147H81.0503C81.9178 109.147 82.6436 109.433 83.2275 110.004C83.8115 110.571 84.1035 111.263 84.1035 112.08C84.1035 112.893 83.8115 113.582 83.2275 114.149C82.6436 114.716 81.9178 115 81.0503 115ZM78.9683 113.699H81.0503C81.4989 113.699 81.8818 113.544 82.1992 113.235C82.5166 112.922 82.6753 112.537 82.6753 112.08C82.6753 111.619 82.5166 111.232 82.1992 110.918C81.8818 110.605 81.4989 110.449 81.0503 110.449H78.9683V113.699ZM90.7368 113.699H93.0791C93.5023 113.699 93.8556 113.557 94.1392 113.273C94.4269 112.986 94.5708 112.63 94.5708 112.207C94.5708 111.78 94.4269 111.424 94.1392 111.141C93.8556 110.853 93.5023 110.709 93.0791 110.709H90.7368V113.699ZM93.0791 115H89.3086V105.897H95.2881V107.199H90.7368V109.408H93.0791C93.9212 109.408 94.6195 109.676 95.1738 110.214C95.7282 110.751 96.0054 111.416 96.0054 112.207C96.0054 112.994 95.7282 113.656 95.1738 114.194C94.6195 114.731 93.9212 115 93.0791 115ZM98.0811 105.897H101.718C102.586 105.897 103.312 106.183 103.896 106.754C104.484 107.321 104.778 108.013 104.778 108.83C104.778 109.643 104.484 110.332 103.896 110.899C103.312 111.466 102.586 111.75 101.718 111.75H99.5093V115H98.0811V105.897ZM101.718 107.199H99.5093V110.449H101.718C102.167 110.449 102.55 110.294 102.867 109.985C103.185 109.672 103.343 109.287 103.343 108.83C103.343 108.369 103.185 107.982 102.867 107.668C102.55 107.355 102.167 107.199 101.718 107.199ZM105.025 115L108.796 105.897H110.224L113.995 115H112.503L111.525 112.594H107.495L106.517 115H105.025ZM109.513 107.522L108.015 111.293H111.005L109.513 107.522ZM113.734 105.897H120.622V107.199H117.892V115H116.464V107.199H113.734V105.897ZM125.827 115H122.189V105.897H123.618V109.147H125.827C126.694 109.147 127.42 109.433 128.004 110.004C128.592 110.571 128.886 111.263 128.886 112.08C128.886 112.893 128.592 113.582 128.004 114.149C127.42 114.716 126.694 115 125.827 115ZM123.618 113.699H125.827C126.275 113.699 126.658 113.544 126.976 113.235C127.293 112.922 127.452 112.537 127.452 112.08C127.452 111.619 127.293 111.232 126.976 110.918C126.662 110.605 126.279 110.449 125.827 110.449H123.618V113.699ZM66.0381 121.897V126.322L70.1323 121.897H71.9541L68.4438 125.668L72.2144 131H70.4561L67.4663 126.709L66.0381 128.271V131H64.6099V121.897H66.0381ZM77.5464 131H73.6489V121.897H77.3496C78.0859 121.897 78.7144 122.141 79.2349 122.627C79.7554 123.114 80.0156 123.673 80.0156 124.303C80.0156 124.667 79.9395 125.001 79.7871 125.306C79.639 125.611 79.4909 125.822 79.3428 125.941L79.1079 126.125C79.1418 126.142 79.1883 126.172 79.2476 126.214C79.311 126.252 79.4232 126.339 79.584 126.474C79.7448 126.605 79.8823 126.751 79.9966 126.912C80.1151 127.073 80.223 127.282 80.3203 127.541C80.4219 127.794 80.4727 128.059 80.4727 128.334C80.4727 129.062 80.1934 129.688 79.6348 130.213C79.0762 130.738 78.38 131 77.5464 131ZM75.0771 129.762H77.5464C77.9696 129.762 78.325 129.62 78.6128 129.337C78.9006 129.049 79.0444 128.694 79.0444 128.271C79.0444 127.847 78.9006 127.492 78.6128 127.204C78.3293 126.916 77.9738 126.772 77.5464 126.772H75.0771V129.762ZM77.3496 123.135H75.0771V125.604H77.3496C77.7051 125.604 77.9992 125.488 78.2319 125.255C78.4689 125.018 78.5874 124.724 78.5874 124.373C78.5874 124.018 78.4689 123.723 78.2319 123.491C77.9992 123.254 77.7051 123.135 77.3496 123.135ZM81.2407 131L85.0112 121.897H86.4395L90.21 131H88.7183L87.7407 128.594H83.71L82.7324 131H81.2407ZM85.7285 123.522L84.2305 127.293H87.2202L85.7285 123.522ZM91.7778 121.897H95.415C96.2826 121.897 97.0083 122.183 97.5923 122.754C98.1805 123.321 98.4746 124.013 98.4746 124.83C98.4746 125.643 98.1805 126.332 97.5923 126.899C97.0083 127.466 96.2826 127.75 95.415 127.75H93.2061V131H91.7778V121.897ZM95.415 123.199H93.2061V126.449H95.415C95.8636 126.449 96.2466 126.294 96.564 125.985C96.8813 125.672 97.04 125.287 97.04 124.83C97.04 124.369 96.8813 123.982 96.564 123.668C96.2466 123.355 95.8636 123.199 95.415 123.199ZM99.5093 121.897H106.396V123.199H103.667V131H102.239V123.199H99.5093V121.897ZM115.696 131H114.268V124.437L109.196 131H107.964V121.897H109.393V128.467L114.464 121.897H115.696V131ZM118.298 121.897H121.936C122.803 121.897 123.529 122.183 124.113 122.754C124.701 123.321 124.995 124.013 124.995 124.83C124.995 125.643 124.701 126.332 124.113 126.899C123.529 127.466 122.803 127.75 121.936 127.75H119.727V131H118.298V121.897ZM121.936 123.199H119.727V126.449H121.936C122.384 126.449 122.767 126.294 123.084 125.985C123.402 125.672 123.561 125.287 123.561 124.83C123.561 124.369 123.402 123.982 123.084 123.668C122.767 123.355 122.384 123.199 121.936 123.199ZM127.388 121.897L129.857 126.646L132.066 121.897H133.564L130.314 128.791C129.934 129.608 129.519 130.202 129.07 130.575C128.626 130.943 128.044 131.127 127.325 131.127C127.168 131.127 127.014 131.11 126.861 131.076C126.709 131.042 126.595 131.008 126.519 130.975L126.411 130.937V129.699C126.584 129.783 126.844 129.828 127.191 129.832C127.615 129.832 127.947 129.747 128.188 129.578C128.433 129.409 128.643 129.146 128.816 128.791L129.14 128.137L125.89 121.897H127.388Z" fill="white"/>
</svg>
