<svg width="61" height="64" viewBox="0 0 61 64" fill="none" xmlns="http://www.w3.org/2000/svg">
<path fill-rule="evenodd" clip-rule="evenodd" d="M31.313 40.5671L31.2809 40.5662C31.2817 40.5672 31.2921 40.5675 31.313 40.5671ZM60.6563 47.481L60.6496 44.2813L58.4265 44.2491V41.1679L60.6349 40.5182L60.6502 37.4109L58.6086 37.3802V34.7538L60.6544 33.5176L60.648 30.5098L58.6088 30.4418V27.692L60.6597 26.7105L60.6231 23.8047L58.5726 23.7055V21.0801L60.6368 19.9905V16.9696L58.4945 16.8668V14.1654L60.6471 13.111V10.0573L58.5831 9.94026V1.04702L46.6027 0L41.4226 4.04959V4.86425L30.3631 7.48144L21.6921 6.88119C21.6825 6.88327 18.2788 7.59977 13.8281 9.91416C9.32804 12.2548 7.68166 14.6326 7.67707 14.6392L7.58602 14.7683V28.9176L4.05497 28.8157L2.48807 30.0691V53.7501L0.378906 54.3656V57.8994H1.93884L1.96078 64H58.5831V55.047H60.6444V51.2097H58.5001V47.9862L60.6563 47.481ZM59.6328 38.3808L59.6204 39.4314L44.7247 39.2827L40.664 40.8298L31.2445 41.6145L8.77895 40.9581L5.40553 42.9211V42.0284L9.03237 39.9176L31.2809 40.5663C31.2557 40.5327 40.9147 39.7564 40.9147 39.7564L44.9071 38.1642L59.6328 38.3808ZM57.4378 40.4339V44.2351L46.9052 44.0861V40.2892L57.4378 40.4339ZM46.2871 40.283V44.0774L44.721 44.0551L40.9881 45.1318V41.7631L44.9087 40.2692L46.2871 40.283ZM40.3699 41.8447V45.1864C39.565 45.2409 38.0125 45.3462 36.4281 45.4545V42.217C37.5933 42.107 39.4814 41.9286 40.3699 41.8447ZM35.8101 42.2754V45.4967C34.1265 45.6121 32.5233 45.7233 31.8681 45.7727V42.5615C32.9911 42.4826 35.4397 42.3103 35.4397 42.3103C35.4397 42.3103 35.5844 42.2968 35.8101 42.2754ZM31.2501 42.6003V45.7939L27.3089 45.7303V42.4851L31.2501 42.6003ZM26.6907 42.4672V45.7203L22.7491 45.6567V42.3518L26.6907 42.4672ZM22.131 42.3339V45.6468L18.1889 45.5833V42.2188L22.131 42.3339ZM17.5708 42.2007V45.5734L13.8122 45.5127V42.0908L17.5708 42.2007ZM13.1942 42.0727V45.5028L9.54024 45.4439V41.9661L13.1942 42.0727ZM10.1102 33.7406L10.0219 33.0587C10.2848 32.9393 10.7284 32.7437 11.3207 32.4983V33.2931C10.8098 33.4762 10.3958 33.6309 10.1102 33.7406ZM11.3207 33.9478V36.0457L10.4041 36.0104L10.1916 34.3698C10.4382 34.2738 10.8183 34.1297 11.3207 33.9478ZM9.88959 32.0374L9.5346 29.2973C10.01 29.0227 10.6073 28.6999 11.3207 28.352V31.4323C10.7126 31.6787 10.2305 31.8863 9.88959 32.0374ZM11.3654 36.6637C11.6589 37.4511 11.952 38.2385 12.2455 39.0258L8.77895 38.9244L7.60515 39.6076L6.77077 36.4871L11.3654 36.6637ZM14.8053 19.2809V20.2342C13.7159 20.6809 12.7608 21.1184 11.9388 21.5279V20.4753C12.7153 20.1195 13.6588 19.7208 14.8053 19.2809ZM11.9388 19.3959V16.4154C12.7222 15.9319 13.666 15.4199 14.8053 14.9005V18.2283C13.6804 18.653 12.7336 19.0427 11.9388 19.3959ZM14.8053 20.8973V24.2858C13.7313 24.6696 12.7746 25.06 11.9388 25.4362V22.2155C12.7519 21.8021 13.7016 21.3565 14.8053 20.8973ZM14.8053 25.3333V26.2279C14.2289 26.4349 13.6748 26.6437 13.1666 26.8516H13.1654C12.7293 27.0301 12.3228 27.2071 11.9387 27.3809V26.5194C12.7605 26.1371 13.7128 25.7335 14.8053 25.3333ZM13.3997 27.4213L13.3994 27.4208C13.8372 27.2417 14.3127 27.0615 14.8053 26.8818V30.144C13.716 30.511 12.744 30.8696 11.9388 31.1854V28.0584C12.3881 27.8507 12.8726 27.6372 13.3997 27.4213ZM14.8053 31.1851V32.1415C13.6948 32.4807 12.728 32.8007 11.9388 33.0751V32.2471C12.725 31.9326 13.6902 31.5671 14.8053 31.1851ZM14.8053 32.7858V35.7323C13.6183 36.0609 12.8213 36.3421 12.3505 36.5255L12.1841 36.079L11.9387 36.0694V33.7279C12.715 33.4553 13.68 33.1319 14.8053 32.7858ZM13.2909 39.0506H13.2912L13.1327 38.625C13.509 38.5323 14.0714 38.3988 14.8054 38.2379V39.1009L13.2887 39.0516L13.2912 39.0515L13.2909 39.0506ZM12.9162 38.0439L12.6948 37.4495C13.0955 37.2914 13.7783 37.0463 14.8054 36.7536V37.6075C13.9504 37.7938 13.3143 37.9452 12.9162 38.0439ZM18.3409 18.0208C18.4633 17.98 18.5901 17.9405 18.7143 17.9003V18.8142C18.5352 18.8713 18.3552 18.9281 18.179 18.9864C17.1809 19.3172 16.2688 19.6529 15.4235 19.9862V19.047C16.2877 18.7249 17.2552 18.3827 18.3409 18.0208ZM15.4235 17.9984V14.6264C16.3881 14.2103 17.4821 13.7928 18.7143 13.3843V16.8656C18.4843 16.9384 18.256 17.0115 18.0322 17.0861C17.0749 17.4054 16.2115 17.7089 15.4235 17.9984ZM18.3721 19.5705C18.4846 19.5331 18.6006 19.4974 18.7143 19.4606V23.0965C18.4676 23.1586 18.2278 23.2204 18.0009 23.282C17.0802 23.5321 16.2244 23.7981 15.4233 24.0701V20.6485C16.3196 20.2902 17.2941 19.9278 18.3721 19.5705ZM18.26 24.2357C18.4054 24.1961 18.5605 24.1565 18.7143 24.1168V25.0298C18.4845 25.0877 18.2618 25.1457 18.0494 25.2034C17.1135 25.4577 16.2376 25.7286 15.4235 26.0063V25.1155C16.2942 24.8125 17.2337 24.5145 18.26 24.2357ZM18.211 25.7998C18.3721 25.7561 18.5429 25.712 18.7143 25.668V28.9704C17.5413 29.2792 16.4355 29.6092 15.4235 29.9384V26.6607C16.2795 26.3643 17.2045 26.0731 18.211 25.7998ZM18.7143 29.9913V31.0536C17.5331 31.3504 16.4266 31.6568 15.4235 31.9544V30.9777C16.4299 30.6448 17.533 30.3077 18.7143 29.9913ZM18.7143 31.6893V34.8234C17.4157 35.0792 16.3253 35.3321 15.4235 35.5672V32.5988C16.4241 32.2996 17.526 31.9903 18.7143 31.6893ZM18.7143 35.8271V36.8393C17.4429 37.0654 16.3328 37.2834 15.4235 37.4747V36.5836C16.3065 36.3482 17.3945 36.0901 18.7143 35.8271ZM18.7143 37.4652V39.2148L15.4235 39.1187V38.1049C16.3268 37.9134 17.432 37.6944 18.7143 37.4652ZM23.1597 16.657V17.5815C21.8511 17.8992 20.5635 18.2456 19.3325 18.6213V17.704C20.5456 17.3293 21.836 16.9806 23.1597 16.657ZM19.3324 16.6752V13.1833C19.9675 12.9823 20.6358 12.7837 21.3437 12.5896C21.9574 12.4213 22.5622 12.2607 23.1597 12.1056V15.6432C21.8408 15.9619 20.5518 16.3062 19.3324 16.6752ZM23.1597 18.2147V22.1353C21.7719 22.4021 20.4703 22.6743 19.3325 22.9449V19.2638C20.5601 18.8844 21.849 18.5354 23.1597 18.2147ZM23.1597 23.1405V24.0664C21.7707 24.3339 20.4679 24.6067 19.3325 24.8779V23.9621C20.4602 23.688 21.7621 23.4117 23.1597 23.1405ZM23.1597 24.6951V27.9907C22.3283 28.1435 21.5499 28.2973 20.8564 28.45C20.3373 28.5644 19.8315 28.6867 19.3325 28.812V25.5142C20.4621 25.2408 21.7642 24.9654 23.1597 24.6951ZM21.0689 29.4155C21.7031 29.2758 22.4079 29.1353 23.1595 28.9954V30.0935C22.3432 30.2389 21.5784 30.3874 20.896 30.5376C20.3613 30.6553 19.8427 30.7778 19.3324 30.9017V29.8323C19.8986 29.6875 20.475 29.5464 21.0689 29.4155ZM21.0292 31.1409C21.6745 30.9987 22.3931 30.8584 23.1597 30.7205V34.079C21.7314 34.2815 20.4594 34.4928 19.3325 34.7046V31.5377C19.8847 31.4025 20.4473 31.269 21.0292 31.1409ZM23.1597 35.0762V36.1337C21.7674 36.3295 20.4855 36.5317 19.3325 36.7304V35.7068C20.451 35.4946 21.7236 35.2814 23.1597 35.0762ZM23.1597 36.7568V39.3448L19.3325 39.233V37.3565C20.4832 37.1572 21.764 36.9539 23.1597 36.7568ZM28.3587 15.5301V16.4697C26.8535 16.754 25.3074 17.0749 23.7777 17.4341V16.5077C25.2946 16.1485 26.8435 15.8223 28.3587 15.5301ZM23.7777 15.4962V11.947C25.3787 11.539 26.9127 11.1781 28.3587 10.8599V14.5269C26.8475 14.8164 25.2989 15.1399 23.7777 15.4962ZM28.3587 17.0952V21.2155C26.8113 21.4704 25.255 21.7407 23.7777 22.0183V18.0648C25.3046 17.7034 26.8519 17.3811 28.3587 17.0952ZM28.3587 22.2142V23.1455C26.8102 23.4007 25.2543 23.6712 23.7777 23.9491V23.0216C25.2499 22.743 26.8071 22.471 28.3587 22.2142ZM28.3587 23.77V27.1392C26.7712 27.3757 25.2064 27.6253 23.7777 27.879V24.5763C25.251 24.2978 26.8079 24.0263 28.3587 23.77ZM28.3587 28.1373V29.2896C26.7702 29.5076 25.2052 29.7416 23.7777 29.9855V28.8821C25.1991 28.6271 26.7665 28.3758 28.3587 28.1373ZM28.3587 29.9117V33.4288C27.3793 33.5453 26.3491 33.6693 25.2628 33.8014C24.7494 33.864 24.2573 33.928 23.7777 33.9931V30.6113C25.2006 30.3663 26.7675 30.131 28.3587 29.9117ZM25.3784 34.7824C26.4262 34.6549 27.4124 34.5364 28.3587 34.4236V35.4992C27.7962 35.5611 27.2229 35.6247 26.6302 35.692C25.6349 35.8048 24.6865 35.925 23.7777 36.0482V34.9896C24.292 34.9193 24.8235 34.8501 25.3784 34.7824ZM26.698 36.305C27.2658 36.2407 27.8184 36.1791 28.3587 36.1197V39.4968L23.7777 39.3629V36.6702C24.7058 36.5437 25.6779 36.4207 26.698 36.305ZM33.8977 14.5692V15.5403C32.3913 15.7636 30.7197 16.0342 28.9771 16.3544V15.4126C30.7104 15.0865 32.3828 14.8055 33.8977 14.5692ZM28.9771 14.4104V10.7247C30.7803 10.336 32.4337 10.016 33.8977 9.75387V13.5714C32.3877 13.8057 30.7147 14.0855 28.9771 14.4104ZM33.8977 16.1625V20.3534C32.3674 20.5795 30.6877 20.8368 28.9771 21.1147V16.98C30.7172 16.6588 32.3888 16.387 33.8977 16.1625ZM33.8977 21.3488V22.2828C32.3668 22.5091 30.6862 22.7668 28.9771 23.0446V22.1128C30.6826 21.8346 32.3627 21.5763 33.8977 21.3488ZM33.8977 22.9053V26.3682C32.3447 26.5715 30.6592 26.8014 28.9771 27.0477V23.6685C30.6837 23.3904 32.3634 23.1325 33.8977 22.9053ZM33.8977 27.3634V28.593C32.3437 28.7733 30.6585 28.9799 28.9771 29.2055V28.0457C30.6548 27.7989 32.34 27.5679 33.8977 27.3634ZM33.8977 29.2133V32.7848C32.4718 32.9464 30.8219 33.1371 28.9771 33.3555V29.8276C30.6556 29.6015 32.341 29.3943 33.8977 29.2133ZM33.8977 33.7778V34.9236C32.4467 35.0655 30.7983 35.2343 28.9771 35.4319V34.3499C30.8315 34.1299 32.4677 33.9403 33.8977 33.7778ZM33.8977 35.5431V39.3961L31.2445 39.581L28.9771 39.5147V36.0525C30.7932 35.8551 32.447 35.6852 33.8977 35.5431ZM40.2476 13.6955V14.7308C39.4738 14.8104 37.3349 15.0428 34.5159 15.4497V14.4738C37.2644 14.0549 39.3981 13.7944 40.2476 13.6955ZM34.5159 13.4763V9.64428C37.3518 9.14976 39.3809 8.88819 40.2476 8.78528V12.7019C39.4937 12.7889 37.338 13.0483 34.5159 13.4763ZM40.2476 15.3497V19.4644C39.4469 19.5694 37.2717 19.8595 34.5159 20.2623V16.0713C37.2892 15.6697 39.4193 15.4358 40.2476 15.3497ZM40.2476 20.4576V21.394C39.4317 21.5009 37.2653 21.7896 34.5159 22.1918V21.2575C37.2002 20.8639 39.3482 20.576 40.2476 20.4576ZM40.2476 22.015V25.5857C39.2603 25.6994 37.1163 25.9515 34.5159 26.2878V22.8141C37.2111 22.4193 39.3637 22.1313 40.2476 22.015ZM40.2476 26.579V27.913C39.2449 28.011 37.1031 28.2264 34.5159 28.5218V27.2828C37.0705 26.9517 39.2009 26.6999 40.2476 26.579ZM40.2476 28.5317V32.0938C39.4992 32.1703 37.5429 32.3742 34.5159 32.7149V29.1419C37.0794 28.8485 39.2132 28.633 40.2476 28.5317ZM40.2476 33.0842V34.3563C39.3229 34.4286 37.3405 34.5912 34.5159 34.8633V33.7077C37.5047 33.3699 39.4383 33.1672 40.2476 33.0842ZM40.2476 34.9754V38.8402L34.5159 39.353V35.4832C37.3098 35.2139 39.2983 35.0498 40.2476 34.9754ZM40.8656 38.7156V34.9284L44.8897 32.932L46.3242 32.9896V37.1996L44.7259 37.1763L40.8656 38.7156ZM57.6196 34.1924V37.3658L46.9422 37.2088V33.0145L58.8167 33.4905L57.6196 34.1924ZM59.6146 31.4634L59.617 32.9099L44.7542 32.3101L40.8658 34.2726V32.99L40.8677 32.989L44.8604 30.9744L59.6146 31.4634ZM40.8656 31.885V28.472C40.8994 28.4687 40.9215 28.4667 40.923 28.4665L40.9964 28.4595L41.0582 28.4204L44.8989 26.0041L46.3242 26.0725V30.0365L44.6394 29.9812L40.8656 31.885ZM46.9422 30.0571V26.1023L58.4928 26.6555L57.6197 27.0692V30.4093L46.9422 30.0571ZM59.607 24.7452L59.6242 26.047L59.6122 26.0526L44.8316 25.384L44.7356 25.3796L44.6532 25.4313L40.8658 27.8144V26.5084C40.9132 26.5031 40.9467 26.4994 40.9484 26.4991L41.0609 26.4865L41.1569 26.4257L44.9484 24.04L59.607 24.7452ZM40.8656 25.4442V21.8727L44.8147 18.7699L46.2931 18.8393V23.1174L44.6861 23.0407L40.8656 25.4442ZM57.5622 20.4815V23.6583L46.9112 23.147V18.8682L59.5554 19.4615L57.5622 20.4815ZM59.6266 17.91V18.8507L44.613 18.1435L40.8656 21.0877V20.3647L44.8756 17.2147L59.6266 17.91ZM40.8656 19.1088V15.1908L44.9969 12.1562L46.2931 12.2386V16.2946L44.5521 16.2129L40.8656 19.1088ZM57.5053 13.5591V16.8206L46.9111 16.3234V12.2778L58.5846 13.0196L57.5053 13.5591ZM46.952 1.02285L57.5938 1.95288V9.88316L46.952 9.26824V1.02285ZM59.6155 10.988V12.467L44.8129 11.5264L40.8655 14.4258V13.5763L45.0672 10.1473L59.6155 10.988ZM40.8656 12.3045V8.6763L40.8732 8.67052L44.9157 5.57408L46.3338 5.63325V9.23265L44.7426 9.14072L40.8656 12.3045ZM8.57432 15.0859C8.95615 14.5991 10.5868 12.7134 14.2832 10.7908C18.269 8.71796 21.3432 7.97062 21.8231 7.86149L30.4429 8.47715L42.4109 5.64496V4.52676L46.3337 1.45984V4.71123L44.7176 4.64405L40.5671 7.82278C39.6549 7.92243 31.4888 8.86387 21.1819 11.6907C13.238 13.8691 9.85 16.6276 8.57418 18.0033V15.0859H8.57432ZM8.57432 19.2632C8.85962 18.8651 9.63425 17.9434 11.3207 16.8127V19.6762C9.9231 20.3274 9.077 20.8357 8.57432 21.1878V19.2632ZM8.57432 22.428C8.78652 22.2254 9.48359 21.6547 11.3207 20.7661V21.8439C10.0364 22.5143 9.12549 23.0864 8.57432 23.4623V22.428ZM8.57432 24.2136C8.98937 23.9116 9.88722 23.3011 11.3207 22.5362V25.7222C10.1036 26.2989 9.18495 26.8189 8.57432 27.1951V24.2136ZM8.57432 28.3637C9.01754 28.0669 9.93615 27.4932 11.3207 26.8136V27.6679C10.3221 28.1437 9.5303 28.5802 8.95333 28.9238L8.57432 28.9232V28.3637ZM8.62904 29.9167L9.47039 35.9743L6.21856 35.8493L5.4343 36.3437L4.62245 29.8178L8.62904 29.9167ZM3.47623 30.5376L4.03599 30.0898L4.85896 36.7064L3.47608 37.5783V30.5376H3.47623ZM3.47623 38.3068L6.16503 36.6112L7.05206 39.9293L4.41664 41.4632V44.6373L8.92205 42.0155V45.4359L4.42583 47.1493V50.2424L8.92205 48.5524V52.0177L3.47623 53.5114V38.3068ZM8.92501 63.0112H2.94908V62.1207L8.92501 61.8047V63.0112ZM8.92501 60.8167L2.92699 61.1401V56.9911L8.92501 55.4607V60.8167ZM8.92501 54.8345H8.92457L1.36691 56.7518V55.1033L8.92486 53.0055V54.8345H8.92501ZM31.2801 53.2624V54.8745L9.5432 54.8356V52.9269L31.2801 53.2624ZM13.8122 52.0115V48.5307L17.5708 48.5915V52.0762L13.8122 52.0115ZM18.1889 52.0867V48.6015L22.131 48.6651V52.1543L18.1889 52.0867ZM22.7491 52.1648V48.675L26.6907 48.7388V52.2326L22.7491 52.1648ZM27.3088 52.2431V48.7487L31.25 48.8125V52.2747L27.3088 52.2431ZM13.1942 52.0008L9.54024 51.9381V48.4616L13.1942 48.5206V52.0008ZM27.1345 63.0112H15.0213V62.6634H17.9873V61.9792H20.9534V61.2941H27.1347V63.0112H27.1345ZM46.3246 63.0112H27.7527V61.2872L46.3246 61.2796V63.0112ZM46.3246 60.6614L20.335 60.6759V61.361H17.3689V62.0452H14.4029V63.0111H9.5432V55.4517L31.8982 55.4953V53.244L40.3668 52.9927L40.3873 55.1385L44.7691 54.6687H46.3246V60.6614ZM31.8681 52.2563V48.7868C32.5971 48.7374 34.1692 48.6307 35.8101 48.5195V52.1393L31.8681 52.2563ZM36.4281 52.1209V48.4775C37.9882 48.3716 39.5201 48.2677 40.3699 48.2101V52.0041L36.4281 52.1209ZM57.5938 63.0112H46.9428V61.2796H57.5938V63.0112ZM46.9428 60.6614V54.6689H57.567L57.5938 60.6614H46.9428ZM59.6272 52.1986V54.0507H44.7595L40.996 54.453L40.9819 52.928L44.994 52.1986H59.6272ZM40.9881 51.9383V48.1682L44.8477 47.2837L46.362 47.2846V51.21H44.9942L40.9881 51.9383ZM46.9802 51.2099V47.2847L57.5106 47.2905V51.2097H46.9802V51.2099ZM44.7239 46.2988L40.9378 47.1811C40.6865 47.1995 31.6603 47.8074 31.5557 47.8325L8.81499 47.468L5.41458 48.7965V47.8224L9.18035 46.4235L31.4445 46.7822C31.4814 46.7795 41.0462 46.1308 41.0514 46.1305L44.8504 45.0421L59.6125 45.2519L59.6222 46.3074L44.7239 46.2988ZM31.5685 46.784L31.4445 46.782L31.4432 46.7822L31.5685 46.784Z" fill="white"/>
</svg>
