<svg width="58" height="58" viewBox="0 0 58 58" fill="none" xmlns="http://www.w3.org/2000/svg">
<path fill-rule="evenodd" clip-rule="evenodd" d="M29 0C45.016 0 58 12.984 58 29C58 45.016 45.016 58 29 58C12.984 58 0 45.016 0 29C0 12.984 12.984 0 29 0Z" fill="#313D45"/>
<path fill-rule="evenodd" clip-rule="evenodd" d="M45 29C45 20.163 37.837 13 29 13C20.163 13 13 20.163 13 29C13 37.837 20.163 45 29 45C29.104 45 29.227 45.025 29.227 45.025H38.82V41.614C42.576 38.686 45 34.131 45 29Z" fill="white"/>
<path fill-rule="evenodd" clip-rule="evenodd" d="M35 28C35.552 28 36 28.448 36 29C36 29.552 35.552 30 35 30C34.448 30 34 29.552 34 29C34 28.448 34.448 28 35 28Z" fill="#313D45"/>
<path fill-rule="evenodd" clip-rule="evenodd" d="M29 28C29.552 28 30 28.448 30 29C30 29.552 29.552 30 29 30C28.448 30 28 29.552 28 29C28 28.448 28.448 28 29 28Z" fill="#313D45"/>
<path fill-rule="evenodd" clip-rule="evenodd" d="M23 28C23.552 28 24 28.448 24 29C24 29.552 23.552 30 23 30C22.448 30 22 29.552 22 29C22 28.448 22.448 28 23 28Z" fill="#313D45"/>
</svg>
